<svg version="1.0" xmlns="http://www.w3.org/2000/svg" width="800.000000" height="800.000000" viewBox="0 0 800.000000 800.000000" preserveAspectRatio="xMidYMid meet">
  <metadata>
    <rdf:RDF xmlns:rdf="http://www.w3.org/1999/02/22-rdf-syntax-ns#" xmlns:rdfs="http://www.w3.org/2000/01/rdf-schema#" xmlns:dc="http://purl.org/dc/elements/1.1/">
      <rdf:Description dc:format="image/svg+xml" dc:Label="1" dc:ContentProducer="001191330110MACRLGPT8B00000" dc:ProduceID="309056238" dc:ReservedCode1="8SDLS38JSjH6Oq2GWO9H2mgaZix6n2d4WVdAe7tLx68=" dc:ContentPropagator="001191330110MACRLGPT8B00000" dc:PropagateID="309056238" dc:ReservedCode2="8SDLS38JSjH6Oq2GWO9H2mgaZix6n2d4WVdAe7tLx68="/>
    </rdf:RDF>
  </metadata>
  <g transform="translate(57.646846,787.853926) scale(0.089373,-0.089373)" fill="#000000" stroke="none">
    <path d="M3652 6678 c-12 -6 -32 -27 -45 -47 l-22 -36 4 -417 c2 -230 1 -418 -2 -418 -2 0 -139 136 -303 301 -165 166 -317 314 -338 330 -31 23 -49 29 -92 29 -61 0 -70 -7 -216 -154 -56 -57 -79 -88 -84 -113 -15 -81 -17 -78 523 -613 l507 -501 1 -219 0 -220 -210 0 -210 0 -505 504 c-278 278 -518 510 -533 515 -40 15 -93 14 -125 -3 -32 -17 -205 -191 -221 -223 -17 -34 -13 -90 9 -131 12 -20 163 -176 338 -347 l317 -310 -435 -5 c-394 -5 -438 -7 -463 -23 -52 -34 -59 -63 -55 -237 3 -153 4 -159 28 -186 50 -53 56 -54 502 -54 l412 0 -331 -332 c-361 -363 -360 -362 -335 -447 14 -45 213 -246 255 -256 49 -13 94 4 154 56 32 27 267 258 523 514 l465 465 214 0 214 0 -5 -212 -5 -212 -492 -489 c-271 -268 -503 -504 -517 -524 -24 -36 -31 -97 -16 -134 13 -32 178 -201 218 -225 47 -28 83 -30 128 -9 18 9 178 162 356 340 178 179 324 325 324 325 1 0 2 -199 3 -441 1 -419 2 -443 20 -468 38 -51 74 -61 231 -61 171 0 200 9 232 74 19 41 20 60 20 467 l0 424 323 -323 c177 -178 333 -330 347 -338 33 -17 84 -18 118 0 15 8 73 61 129 118 81 83 103 111 108 142 16 81 19 77 -520 616 l-505 505 0 212 0 213 203 0 204 0 504 -500 c277 -276 521 -510 541 -520 74 -39 114 -25 221 78 116 112 137 144 137 207 0 39 -6 59 -25 86 -14 18 -163 169 -330 335 -168 165 -305 304 -305 307 0 4 185 7 410 7 545 0 520 -12 520 252 0 136 -2 157 -20 186 -37 61 -45 62 -505 62 -228 0 -415 3 -415 6 0 3 148 153 329 332 354 351 354 351 336 433 -8 36 -179 220 -227 245 -35 18 -102 18 -136 0 -15 -8 -252 -240 -527 -515 l-500 -501 -207 0 -208 0 0 222 0 223 505 500 c442 438 506 505 515 541 19 77 3 103 -147 247 l-91 87 -55 0 c-44 0 -61 -5 -93 -29 -21 -16 -173 -163 -336 -328 l-298 -299 0 403 c0 449 -2 464 -65 503 -29 18 -49 20 -191 19 -93 0 -168 -5 -182 -11z m290 -697 l3 -569 433 428 c252 249 438 427 445 423 7 -3 40 -36 75 -73 l62 -67 -496 -494 c-272 -272 -502 -506 -510 -521 -11 -22 -14 -87 -14 -327 0 -297 0 -300 22 -315 18 -13 67 -15 312 -15 l291 1 516 515 515 514 25 -20 c14 -11 46 -44 72 -74 l46 -54 -430 -431 c-236 -237 -429 -436 -429 -442 0 -7 173 -10 573 -8 l572 3 1 -65 c1 -36 -1 -82 -3 -102 l-5 -38 -571 -2 -572 -3 440 -443 439 -442 -74 -75 -75 -75 -517 517 -518 518 -295 3 c-287 3 -295 2 -315 -18 -20 -20 -21 -28 -18 -320 l3 -300 508 -508 c279 -279 507 -512 507 -518 0 -5 -31 -41 -70 -79 l-70 -69 -412 411 c-227 227 -424 422 -438 433 l-25 22 -3 -581 -2 -581 -105 0 -105 0 -2 587 -3 587 -438 -434 c-241 -239 -444 -434 -450 -432 -17 4 -127 121 -127 136 0 6 223 234 496 506 273 272 502 504 510 515 11 16 14 76 14 314 0 260 -2 297 -17 313 -15 17 -38 18 -311 18 l-296 0 -195 -193 c-108 -106 -341 -337 -519 -513 -178 -175 -328 -321 -334 -323 -12 -4 -138 126 -138 141 0 5 197 205 438 446 l437 437 -577 3 -578 2 0 100 0 100 438 1 c240 1 499 0 575 -1 93 -1 137 1 137 9 0 6 -193 204 -430 439 -237 236 -430 433 -430 438 0 5 31 41 70 79 l69 69 511 -509 c281 -281 521 -513 533 -518 12 -4 148 -7 303 -5 220 2 285 6 297 17 15 12 17 48 17 326 l0 313 -512 507 -511 507 74 73 74 74 435 -432 435 -432 2 560 c2 308 5 566 8 573 3 8 34 12 105 12 l100 0 2 -569z"/>
  </g>
</svg>