<svg version="1.0" xmlns="http://www.w3.org/2000/svg" width="800.000000" height="800.000000" viewBox="0 0 800.000000 800.000000" preserveAspectRatio="xMidYMid meet">
  <metadata>
    <rdf:RDF xmlns:rdf="http://www.w3.org/1999/02/22-rdf-syntax-ns#" xmlns:rdfs="http://www.w3.org/2000/01/rdf-schema#" xmlns:dc="http://purl.org/dc/elements/1.1/">
      <rdf:Description dc:format="image/svg+xml" dc:Label="1" dc:ContentProducer="001191330110MACRLGPT8B00000" dc:ProduceID="309056235" dc:ReservedCode1="1D+okS5G9CFSsA2MLnTZazLu6QpSRt1OQvJosDaDtuM=" dc:ContentPropagator="001191330110MACRLGPT8B00000" dc:PropagateID="309056235" dc:ReservedCode2="1D+okS5G9CFSsA2MLnTZazLu6QpSRt1OQvJosDaDtuM="/>
    </rdf:RDF>
  </metadata>
  <g transform="translate(92.249497,733.325383) scale(0.081459,-0.081459)" fill="#000000" stroke="none">
    <path d="M4476 6304 c-96 -19 -158 -40 -257 -90 -287 -143 -491 -428 -545 -763 -18 -111 -13 -142 28 -176 l30 -25 277 0 c331 0 325 -2 336 102 10 100 32 153 86 212 68 75 129 101 239 101 73 0 93 -4 142 -28 111 -55 172 -152 172 -277 0 -94 -27 -159 -92 -223 -92 -90 99 -81 -1874 -87 l-1748 -5 -32 -33 -33 -32 -3 -244 c-3 -273 2 -302 57 -330 28 -15 203 -16 1813 -13 l1783 2 78 23 c228 64 441 214 560 394 52 78 122 232 141 310 80 327 -18 675 -256 910 -137 135 -314 230 -503 269 -107 22 -296 24 -399 3z m291 -124 c427 -49 753 -406 753 -825 0 -364 -231 -673 -595 -796 l-70 -24 -1758 -3 -1757 -2 2 187 3 188 1720 5 c1228 4 1729 8 1750 16 95 35 193 110 240 184 58 92 85 223 66 325 -33 179 -158 313 -336 360 -252 65 -515 -95 -567 -345 l-12 -60 -196 0 c-108 0 -199 3 -202 6 -8 8 17 115 48 203 41 117 102 216 189 309 114 121 233 197 380 241 125 38 215 46 342 31z"/>
    <path d="M1285 4293 c-11 -3 -28 -12 -39 -22 -43 -38 -46 -60 -46 -298 0 -245 3 -260 53 -297 l28 -21 2087 -5 2087 -5 47 -24 c61 -31 122 -92 150 -150 34 -68 32 -187 -4 -256 -48 -91 -127 -146 -228 -159 -39 -5 -63 -15 -82 -33 l-28 -27 0 -273 0 -273 29 -32 c29 -33 30 -33 110 -30 95 3 240 38 333 80 372 168 614 580 568 965 -40 333 -228 606 -522 753 -143 72 -236 94 -430 104 -175 9 -4078 12 -4113 3z m4300 -161 c379 -107 625 -413 627 -782 1 -173 -43 -318 -141 -463 -129 -191 -347 -326 -583 -360 -36 -5 -38 -4 -44 28 -3 18 -4 106 -1 196 l4 164 37 7 c103 22 212 100 270 196 157 261 22 578 -281 657 -50 13 -321 15 -2095 15 l-2038 0 0 178 c0 98 3 182 7 186 4 3 941 5 2082 4 l2076 -3 80 -23z"/>
    <path d="M1259 3545 c-53 -29 -59 -61 -59 -315 0 -181 3 -237 14 -259 31 -60 -57 -56 1250 -61 906 -4 1208 -8 1228 -17 119 -53 163 -199 93 -305 -53 -81 -176 -104 -252 -49 -61 44 -83 82 -98 168 -21 123 -6 117 -324 121 l-268 3 -31 -26 c-40 -33 -46 -69 -32 -176 48 -360 286 -646 617 -741 66 -19 102 -23 233 -23 131 0 167 4 233 23 546 158 795 761 513 1241 -123 208 -354 371 -594 417 -110 21 -2484 20 -2523 -1z m2528 -144 c335 -87 563 -369 564 -696 1 -113 -21 -208 -71 -310 -45 -92 -88 -148 -176 -225 -289 -253 -738 -226 -996 60 -100 110 -170 262 -185 402 l-6 58 188 -2 188 -3 14 -55 c49 -194 239 -302 431 -245 69 21 161 105 193 177 20 44 24 69 23 143 0 59 -6 102 -17 125 -25 56 -74 118 -119 150 -86 63 -32 60 -1309 63 l-1164 2 -3 188 -2 187 1187 0 c1129 0 1192 -1 1260 -19z"/>
  </g>
</svg>