<svg version="1.0" xmlns="http://www.w3.org/2000/svg" width="800.000000" height="800.000000" viewBox="0 0 800.000000 800.000000" preserveAspectRatio="xMidYMid meet">
  <metadata>
    <rdf:RDF xmlns:rdf="http://www.w3.org/1999/02/22-rdf-syntax-ns#" xmlns:rdfs="http://www.w3.org/2000/01/rdf-schema#" xmlns:dc="http://purl.org/dc/elements/1.1/">
      <rdf:Description dc:format="image/svg+xml" dc:Label="1" dc:ContentProducer="001191330110MACRLGPT8B00000" dc:ProduceID="309056237" dc:ReservedCode1="FWa2PLCXJWL6PsV1ZuNXyr74cpkCCXlW+iuPvkrd7TI=" dc:ContentPropagator="001191330110MACRLGPT8B00000" dc:PropagateID="309056237" dc:ReservedCode2="FWa2PLCXJWL6PsV1ZuNXyr74cpkCCXlW+iuPvkrd7TI="/>
    </rdf:RDF>
  </metadata>
  <g transform="translate(48.733958,786.145959) scale(0.093496,-0.093496)" fill="#000000" stroke="none">
    <path d="M2615 6163 c-273 -43 -541 -200 -790 -464 -102 -108 -295 -330 -295 -339 0 -11 117 -115 129 -115 5 0 59 59 122 130 351 404 567 556 863 606 92 16 261 6 362 -20 233 -60 455 -221 661 -479 123 -155 256 -303 325 -364 164 -144 335 -240 506 -285 118 -30 310 -41 422 -24 164 26 349 105 505 218 129 92 338 302 506 507 l72 88 -68 65 c-37 36 -70 61 -74 56 -4 -4 -43 -53 -87 -108 -107 -135 -331 -364 -427 -436 -140 -106 -259 -165 -387 -193 -289 -63 -560 11 -812 220 -95 80 -167 158 -313 339 -264 328 -495 497 -784 576 -59 16 -113 21 -241 24 -91 2 -178 1 -195 -2z"/>
    <path d="M2655 4820 c-159 -20 -315 -75 -457 -162 -112 -68 -202 -141 -333 -273 -117 -118 -335 -360 -335 -373 0 -10 120 -117 131 -117 4 0 50 50 102 110 135 156 318 340 414 416 304 240 664 285 998 124 142 -68 292 -187 407 -323 243 -287 313 -364 384 -423 214 -179 394 -268 614 -304 167 -26 356 -13 510 36 103 33 259 119 366 202 175 134 538 527 517 560 -4 7 -34 37 -66 67 l-58 54 -16 -24 c-48 -69 -244 -288 -334 -375 -138 -132 -223 -195 -344 -254 -151 -74 -209 -86 -405 -86 -192 0 -261 15 -408 89 -173 87 -313 209 -504 441 -295 357 -540 531 -837 595 -107 23 -254 31 -346 20z"/>
    <path d="M2561 3475 c-265 -58 -511 -215 -762 -487 -134 -143 -289 -321 -288 -328 2 -9 128 -120 136 -119 5 0 55 57 113 125 126 149 302 332 386 401 319 260 683 312 1019 146 179 -89 331 -226 530 -478 331 -418 596 -594 954 -635 210 -24 431 26 628 140 188 110 457 371 663 644 l43 57 -67 67 c-54 54 -69 64 -76 52 -21 -37 -161 -205 -272 -327 -176 -193 -319 -308 -469 -377 -106 -49 -179 -66 -309 -73 -351 -17 -618 143 -965 582 -281 356 -523 532 -825 601 -123 28 -331 32 -439 9z"/>
  </g>
</svg>