<svg version="1.0" xmlns="http://www.w3.org/2000/svg" width="800.000000" height="800.000000" viewBox="0 0 800.000000 800.000000" preserveAspectRatio="xMidYMid meet">
  <metadata>
    <rdf:RDF xmlns:rdf="http://www.w3.org/1999/02/22-rdf-syntax-ns#" xmlns:rdfs="http://www.w3.org/2000/01/rdf-schema#" xmlns:dc="http://purl.org/dc/elements/1.1/">
      <rdf:Description dc:format="image/svg+xml" dc:Label="1" dc:ContentProducer="001191330110MACRLGPT8B00000" dc:ProduceID="309278553" dc:ReservedCode1="LBNK89sB6kmoKLWqavRsq8FaNruRPck5f4w8urS9KVU=" dc:ContentPropagator="001191330110MACRLGPT8B00000" dc:PropagateID="309278553" dc:ReservedCode2="LBNK89sB6kmoKLWqavRsq8FaNruRPck5f4w8urS9KVU="/>
    </rdf:RDF>
  </metadata>
  <g transform="translate(-14.473236,814.994320) scale(0.103643,-0.103643)" fill="#000000" stroke="none">
    <path d="M3890 6021 c0 -4 -39 -11 -87 -14 -100 -6 -249 -35 -379 -73 -679 -196 -1221 -763 -1384 -1449 -16 -66 -34 -160 -40 -210 -5 -49 -15 -130 -21 -179 -8 -64 -8 -114 0 -180 6 -50 16 -134 21 -186 49 -440 286 -903 621 -1214 279 -258 649 -442 1029 -511 142 -26 482 -32 631 -11 216 30 400 86 599 182 212 102 353 200 519 359 181 174 302 338 410 555 131 265 185 465 211 792 22 273 -28 590 -137 863 -285 710 -915 1181 -1693 1266 -138 15 -300 21 -300 10z m455 -200 c576 -108 1072 -487 1327 -1013 376 -772 167 -1709 -502 -2254 -253 -206 -588 -351 -910 -393 -358 -47 -712 4 -1023 146 -558 255 -944 748 -1060 1353 -29 156 -32 525 -4 665 79 394 235 694 499 963 220 224 459 374 742 467 133 43 170 52 316 76 156 25 454 20 615 -10z"/>
    <path d="M4344 5223 c-79 -93 -409 -464 -654 -733 -42 -47 -115 -128 -161 -181 -46 -52 -158 -178 -249 -278 -199 -221 -199 -220 -178 -253 19 -29 15 -28 403 -53 284 -18 295 -20 295 -41 0 -14 -50 -207 -175 -674 -72 -270 -75 -285 -58 -309 8 -13 25 -21 42 -21 25 0 60 35 253 253 124 138 323 362 443 497 120 135 270 304 334 375 63 72 153 172 198 223 65 72 83 99 83 122 0 22 -6 33 -22 39 -13 5 -169 19 -347 30 -178 11 -325 22 -327 24 -2 2 12 64 32 138 19 73 52 202 73 284 45 172 126 473 141 525 13 47 13 56 -6 74 -32 33 -68 20 -120 -41z m-173 -514 c-105 -391 -151 -570 -151 -587 0 -11 6 -25 13 -31 8 -6 129 -17 293 -27 153 -9 282 -19 286 -23 8 -7 -47 -74 -227 -272 -77 -85 -207 -230 -290 -323 -190 -213 -258 -285 -252 -266 2 8 42 158 87 333 72 273 81 320 69 331 -9 9 -71 17 -184 25 -302 21 -407 30 -412 35 -5 5 46 65 298 347 164 183 264 295 377 422 58 64 107 115 109 113 2 -2 -5 -37 -16 -77z"/>
  </g>
</svg>