<?xml version="1.0" standalone="no"?><!DOCTYPE svg PUBLIC "-//W3C//DTD SVG 1.1//EN" "http://www.w3.org/Graphics/SVG/1.1/DTD/svg11.dtd"><svg t="1763004276791" class="icon" viewBox="0 0 1024 1024" version="1.1" xmlns="http://www.w3.org/2000/svg" p-id="997" xmlns:xlink="http://www.w3.org/1999/xlink" width="200" height="200"><path d="M170.666667 384a128 128 0 1 1 0 256 128 128 0 0 1 0-256z m341.333333 0a128 128 0 1 1 0 256 128 128 0 0 1 0-256z m341.333333 0a128 128 0 1 1 0 256 128 128 0 0 1 0-256zM170.666667 448a64 64 0 1 0 0 128 64 64 0 0 0 0-128z m341.333333 0a64 64 0 1 0 0 128 64 64 0 0 0 0-128z m341.333333 0a64 64 0 1 0 0 128 64 64 0 0 0 0-128z" fill="#000614" p-id="998"></path></svg>